<svg width="24" height="24" viewBox="0 0 24 24" fill="none" xmlns="http://www.w3.org/2000/svg">
<path d="M19.7069 10.7072C19.5119 10.9022 19.256 11.0002 19 11.0002C18.744 11.0002 18.488 10.9022 18.293 10.7072L13 5.4141V21.0002C13 21.5532 12.553 22.0002 12 22.0002C11.447 22.0002 11 21.5532 11 21.0002V5.4141L5.70695 10.7072C5.31595 11.0982 4.68401 11.0982 4.29301 10.7072C3.90201 10.3162 3.90201 9.68413 4.29301 9.29313L11.293 2.29313C11.684 1.90213 12.3159 1.90213 12.7069 2.29313L19.7069 9.29313C20.0979 9.68413 20.0979 10.3162 19.7069 10.7072Z" fill="#8b9296"/>
</svg>
