<svg width="24" height="24" viewBox="0 0 24 24" fill="none" xmlns="http://www.w3.org/2000/svg">
	<path d="M21.4448 9.98612C20.8878 9.05812 19.9808 7.8131 18.7268 6.6851L20.7048 4.70719C21.0958 4.31719 21.0958 3.68413 20.7048 3.29313C20.3138 2.90213 19.6818 2.90213 19.2908 3.29313L8.82782 13.7561L8.8258 13.7581L3.2908 19.2931C2.8998 19.6841 2.8998 20.3162 3.2908 20.7072C3.4858 20.9022 3.7418 21.0002 3.9978 21.0002C4.2538 21.0002 4.5098 20.9022 4.7048 20.7072L6.87183 18.5401C8.45083 19.5091 10.1718 20.0002 11.9998 20.0002C17.0688 20.0002 20.0918 16.2521 21.4458 14.0141C22.1878 12.7721 22.1878 11.2301 21.4448 9.98612ZM14.4978 12.0011C14.4978 13.3801 13.3758 14.5011 11.9978 14.5011C11.6798 14.5011 11.3728 14.4381 11.0868 14.3261L14.3218 11.0911C14.4348 11.3761 14.4978 11.6831 14.4978 12.0011ZM19.7308 12.9832C18.5978 14.8572 16.0868 18.0011 11.9998 18.0011C10.7098 18.0011 9.48482 17.6842 8.34082 17.0722L9.61081 15.8022C10.3178 16.2512 11.1348 16.5011 11.9978 16.5011C14.4788 16.5011 16.4978 14.4821 16.4978 12.0011C16.4978 11.1381 16.2478 10.3212 15.7988 9.61417L17.3108 8.10209C18.4248 9.08209 19.2368 10.1911 19.7298 11.0141C20.0878 11.6131 20.0878 12.3892 19.7308 12.9832ZM3.9378 15.9461C3.4298 15.3431 2.96482 14.6951 2.55582 14.0171C1.81182 12.7721 1.8118 11.2292 2.5538 9.9882C3.9078 7.7492 6.92982 4.00114 11.9998 4.00114C12.9778 4.00114 13.9248 4.14214 14.8958 4.43314C15.4248 4.59114 15.7258 5.14916 15.5668 5.67716C15.4078 6.20616 14.8518 6.50716 14.3218 6.34916C13.5398 6.11516 12.7798 6.00114 11.9988 6.00114C7.91081 6.00114 5.39982 9.14508 4.26782 11.0191C3.91182 11.6141 3.91181 12.3892 4.26981 12.9892C4.62281 13.5732 5.02481 14.1352 5.46481 14.6562C5.82081 15.0792 5.76782 15.7101 5.34582 16.0651C5.15782 16.2241 4.9288 16.3012 4.7008 16.3012C4.4178 16.3012 4.1358 16.1801 3.9378 15.9461ZM11.2948 7.56315C11.8378 7.48615 12.3518 7.85311 12.4358 8.39811C12.5198 8.94411 12.1458 9.45608 11.6008 9.54008C10.5478 9.70308 9.69883 10.5522 9.53583 11.6042C9.45983 12.0982 9.03383 12.4522 8.54883 12.4522C8.49783 12.4522 8.44681 12.4481 8.3948 12.4401C7.8488 12.3561 7.47481 11.8451 7.55881 11.2991C7.85781 9.36311 9.35883 7.86215 11.2948 7.56315Z" fill="#8b9296" />
</svg>
