<svg width="24" height="24" viewBox="-7 0 32 32" fill="none" xmlns="http://www.w3.org/2000/svg">
	<path d="M17.56 8.060c0-0.44-0.36-0.88-0.84-0.88h-4.6c-0.48 0-0.84 0.36-0.84 0.84s0.36 0.84 0.84 0.84h2.6l-3.6 3.6c-1.16-0.92-2.64-1.48-4.24-1.48-3.76 0.080-6.88 3.16-6.88 6.96s3.12 6.88 6.88 6.88 6.88-3.080 6.88-6.88c0-1.6-0.56-3.040-1.48-4.24l3.6-3.6v2.76c0 0.48 0.36 0.84 0.84 0.84s0.84-0.36 0.84-0.84c0 0 0-4.8 0-4.8zM6.88 23.14c-2.88 0-5.2-2.32-5.2-5.2s2.32-5.2 5.2-5.2 5.2 2.32 5.2 5.2-2.32 5.2-5.2 5.2z" fill="#06486d" />
</svg>
