<svg width="24" height="24" viewBox="0 0 24 24" fill="none" xmlns="http://www.w3.org/2000/svg">
	<path d="M12 2.5C6.76 2.5 2.5 6.76 2.5 12C2.5 17.24 6.76 21.5 12 21.5C17.24 21.5 21.5 17.24 21.5 12C21.5 6.76 17.24 2.5 12 2.5ZM13 17H11C10.45 17 10 16.55 10 16C10 15.45 10.45 15 11 15H13C13.55 15 14 15.45 14 16C14 16.55 13.55 17 13 17ZM14.5 13H9.5C8.95 13 8.5 12.55 8.5 12C8.5 11.45 8.95 11 9.5 11H14.5C15.05 11 15.5 11.45 15.5 12C15.5 12.55 15.05 13 14.5 13ZM16 9H8C7.45 9 7 8.55 7 8C7 7.45 7.45 7 8 7H16C16.55 7 17 7.45 17 8C17 8.55 16.55 9 16 9Z" fill="#FFFFFF" />
</svg>
