<svg width="24" height="24" viewBox="0 0 24 24" fill="none" xmlns="http://www.w3.org/2000/svg">
<path d="M20.9344 11.6304L17.8204 14.6226L18.5554 18.8435C18.6754 19.5325 18.3974 20.2195 17.8294 20.6355C17.2504 21.0585 16.4944 21.1166 15.8564 20.7876L12.0004 18.7905L8.14445 20.7876C7.87045 20.9296 7.57345 20.9995 7.27845 20.9995C6.88845 20.9995 6.50142 20.8765 6.17142 20.6355C5.60442 20.2195 5.32544 19.5325 5.44544 18.8435L6.18043 14.6226L3.06644 11.6304C2.55644 11.1404 2.37342 10.4195 2.58942 9.74951C2.80742 9.07151 3.38542 8.58857 4.09742 8.48657L8.40644 7.86938L10.3324 4.02441C10.6484 3.39241 11.2884 3.00049 12.0004 3.00049C12.7124 3.00049 13.3524 3.39341 13.6684 4.02441L15.5944 7.86938L19.9034 8.48657C20.6144 8.58857 21.1924 9.07151 21.4104 9.74951C21.6264 10.4195 21.4444 11.1404 20.9344 11.6304Z" fill="#FFFFFF"/>
</svg>
