<svg width="24" height="24" viewBox="0 0 24 24" fill="none" xmlns="http://www.w3.org/2000/svg">
	<path d="M21 5.24902H17.441C16.902 5.24902 16.425 4.90502 16.255 4.39502L15.939 3.44604C15.7 2.73004 15.033 2.25 14.279 2.25H9.71997C8.96597 2.25 8.299 2.73002 8.06 3.44702L7.74402 4.39502C7.57402 4.90602 7.09698 5.25 6.55798 5.25H3C2.586 5.25 2.25 5.586 2.25 6C2.25 6.414 2.586 6.75 3 6.75H4.29797L5.065 18.25C5.196 20.213 6.83901 21.75 8.80701 21.75H15.194C17.161 21.75 18.805 20.212 18.936 18.25L19.703 6.75H21C21.414 6.75 21.75 6.414 21.75 6C21.75 5.586 21.414 5.24902 21 5.24902ZM9.48297 3.92004C9.51697 3.81804 9.61197 3.74902 9.71997 3.74902H14.279C14.387 3.74902 14.482 3.81807 14.516 3.91907L14.832 4.86804C14.876 5.00004 14.931 5.12705 14.993 5.24805H9.005C9.067 5.12605 9.12202 5.00007 9.16602 4.86707L9.48297 3.92004ZM17.438 18.149C17.36 19.327 16.374 20.249 15.193 20.249H8.80603C7.62603 20.249 6.63897 19.327 6.56097 18.149L5.80103 6.74902H6.55798C6.66498 6.74902 6.77 6.736 6.875 6.724C6.917 6.731 6.95502 6.74902 6.99902 6.74902H16.999C17.043 6.74902 17.081 6.731 17.123 6.724C17.228 6.736 17.332 6.74902 17.44 6.74902H18.197L17.438 18.149ZM14.75 10.999V15.999C14.75 16.413 14.414 16.749 14 16.749C13.586 16.749 13.25 16.413 13.25 15.999V10.999C13.25 10.585 13.586 10.249 14 10.249C14.414 10.249 14.75 10.585 14.75 10.999ZM10.75 10.999V15.999C10.75 16.413 10.414 16.749 10 16.749C9.586 16.749 9.25 16.413 9.25 15.999V10.999C9.25 10.585 9.586 10.249 10 10.249C10.414 10.249 10.75 10.585 10.75 10.999Z" fill="#FFFFFF" />
</svg>
